<svg xmlns="http://www.w3.org/2000/svg" viewBox="0 0 300 420" width="300" height="420"><defs><linearGradient id="bg" x1="0" y1="0" x2="0" y2="1"><stop offset="0" stop-color="#6a7088"/><stop offset="1" stop-color="#1a1c26"/></linearGradient>
<radialGradient id="vig" cx=".5" cy=".45" r=".75"><stop offset=".55" stop-color="#000" stop-opacity="0"/><stop offset="1" stop-color="#000" stop-opacity=".7"/></radialGradient><radialGradient id="g150_160_140"><stop offset="0" stop-color="#c8d0e8" stop-opacity="0.25"/><stop offset="1" stop-color="#c8d0e8" stop-opacity="0"/></radialGradient><radialGradient id="e100180"><stop offset="0" stop-color="#ff3030" stop-opacity="0.7"/><stop offset="1" stop-color="#ff3030" stop-opacity="0"/></radialGradient><radialGradient id="e100180"><stop offset="0" stop-color="#ff3030" stop-opacity="0.7"/><stop offset="1" stop-color="#ff3030" stop-opacity="0"/></radialGradient><clipPath id="clip"><rect width="300" height="420" rx="16"/></clipPath></defs><g clip-path="url(#clip)"><rect width="300" height="420" fill="url(#bg)"/><circle cx="150" cy="160" r="140" fill="url(#g150_160_140)"/><circle cx="33" cy="91" r="0.8" fill="#fff" opacity="0.49"/><circle cx="165" cy="164" r="0.8" fill="#fff" opacity="0.76"/><circle cx="90" cy="99" r="0.8" fill="#fff" opacity="0.68"/><circle cx="151" cy="173" r="1.3" fill="#fff" opacity="0.64"/><circle cx="123" cy="61" r="1" fill="#fff" opacity="0.36"/><circle cx="212" cy="75" r="1.3" fill="#fff" opacity="0.46"/><circle cx="123" cy="190" r="0.8" fill="#fff" opacity="0.70"/><circle cx="201" cy="183" r="1" fill="#fff" opacity="0.69"/><circle cx="260" cy="119" r="1.3" fill="#fff" opacity="0.38"/><circle cx="268" cy="75" r="1.6" fill="#fff" opacity="0.88"/><path d="M60 60 q6 -6 12 0 q6 -6 12 0" stroke="#111" stroke-width="2.5" fill="none"/><path d="M90 90 q6 -6 12 0 q6 -6 12 0" stroke="#111" stroke-width="2.5" fill="none"/><path d="M230 70 q6 -6 12 0 q6 -6 12 0" stroke="#111" stroke-width="2.5" fill="none"/><path d="M0 320 Q150 300 300 320 V420 H0Z" fill="#3a3a44"/><path d="M120 318 L230 300" stroke="#e8e2d0" stroke-width="10" stroke-linecap="round"/><circle cx="118" cy="312" r="8" fill="#e8e2d0"/><circle cx="116" cy="326" r="8" fill="#e8e2d0"/><circle cx="234" cy="294" r="8" fill="#e8e2d0"/><circle cx="236" cy="308" r="8" fill="#e8e2d0"/><path d="M80 200 C90 150 150 130 200 160 C230 180 250 220 260 270 L230 250 L224 280 L200 250 C170 260 120 250 96 230Z" fill="#0e0e14"/><path d="M120 190 C150 170 200 180 230 230 C190 200 150 196 120 210Z" fill="#22222e"/><circle cx="104" cy="186" r="26" fill="#0e0e14"/><path d="M82 180 L40 200 L82 196Z" fill="#2a2a30"/><circle cx="100" cy="180" r="14.0" fill="url(#e100180)"/><circle cx="100" cy="180" r="14.0" fill="url(#e100180)"/><circle cx="100" cy="180" r="3.5" fill="#ff3030"/><circle cx="100" cy="180" r="3.5" fill="#ff3030"/><path d="M150 252 l-6 50 M180 254 l4 46" stroke="#2a2a30" stroke-width="4"/><rect x="1.5" y="1.5" width="297" height="417" rx="16" fill="url(#vig)" stroke="#000" stroke-width="3"/><rect x="9" y="9" width="282" height="402" rx="11" fill="none" stroke="#c9a45c" stroke-opacity=".75" stroke-width="1.6"/><path transform="translate(14 14) scale(1 1)" d="M0 26 Q4 6 26 0 M8 30 q2 -8 -4 -12 M30 8 q-8 2 -12 -4 M5 5 l9 9" stroke="#c9a45c" stroke-width="2.2" fill="none" stroke-linecap="round"/><path transform="translate(286 14) scale(-1 1)" d="M0 26 Q4 6 26 0 M8 30 q2 -8 -4 -12 M30 8 q-8 2 -12 -4 M5 5 l9 9" stroke="#c9a45c" stroke-width="2.2" fill="none" stroke-linecap="round"/><path transform="translate(14 406) scale(1 -1)" d="M0 26 Q4 6 26 0 M8 30 q2 -8 -4 -12 M30 8 q-8 2 -12 -4 M5 5 l9 9" stroke="#c9a45c" stroke-width="2.2" fill="none" stroke-linecap="round"/><path transform="translate(286 406) scale(-1 -1)" d="M0 26 Q4 6 26 0 M8 30 q2 -8 -4 -12 M30 8 q-8 2 -12 -4 M5 5 l9 9" stroke="#c9a45c" stroke-width="2.2" fill="none" stroke-linecap="round"/></g></svg>