<svg xmlns="http://www.w3.org/2000/svg" viewBox="0 0 300 420" width="300" height="420"><defs><linearGradient id="bg" x1="0" y1="0" x2="0" y2="1"><stop offset="0" stop-color="#1c2434"/><stop offset="1" stop-color="#080a10"/></linearGradient>
<radialGradient id="vig" cx=".5" cy=".45" r=".75"><stop offset=".55" stop-color="#000" stop-opacity="0"/><stop offset="1" stop-color="#000" stop-opacity=".7"/></radialGradient><radialGradient id="rg"><stop offset="0" stop-color="#6ab8ff" stop-opacity="0.4"/><stop offset="1" stop-color="#6ab8ff" stop-opacity="0"/></radialGradient><clipPath id="clip"><rect width="300" height="420" rx="16"/></clipPath></defs><g clip-path="url(#clip)"><rect width="300" height="420" fill="url(#bg)"/><circle cx="150" cy="220" r="130" fill="url(#rg)"/><path d="M-14.297371456696926 380 Q-11.297371456696926 294.4206756595844 -18.297371456696926 208.8413513191688 M-13.297371456696926 302.97860809362595 Q-38.29737145669692 277.30481079150127 -50.29737145669692 234.5151486212935 M-14.297371456696926 277.30481079150127 Q11.702628543303074 251.6310134893766 21.702628543303074 217.39928375321037 M-16.297371456696926 243.07308105533505 Q-30.297371456696926 222.5340432136353 -28.297371456696926 200.28341888512725" stroke="#0c1018" stroke-width="7" fill="none" stroke-linecap="round"/><path d="M-22.297371456696926 380 Q-16.297371456696926 311.5365405276675 -17.297371456696926 277.30481079150127 L-9.297371456696926 277.30481079150127 Q-8.297371456696926 311.5365405276675 -2.2973714566969257 380Z" fill="#0c1018"/><path d="M279.4843225200827 190.72680340261186 L309.76803397566476 262.65061810961936 L296.44320093520867 262.65061810961936 L327.93826084901406 327.0035049527313 L306.73966283010657 327.0035049527313 L340.0517454312469 380 L218.91689960891847 380 L252.2289822100588 327.0035049527313 L231.0303841911513 327.0035049527313 L262.5254441049567 262.65061810961936 L249.20061106450058 262.65061810961936Z" fill="#0c1018"/><path d="M0 360 Q75 354 150 360 T300 360 V420 H0Z" fill="#121620"/><path d="M86 360 L92 110 Q150 70 208 110 L214 360Z" fill="#3a4250"/><path d="M96 350 L100 118 Q150 84 200 118 L204 350Z" fill="#2c3440"/><path transform="translate(112 132)" d="M0 0 h18 M4 0 q-4 10 6 12 q10 0 6 -8" stroke="#9ad8ff" stroke-width="2.6" fill="none" stroke-linecap="round"/><path transform="translate(140 132)" d="M0 0 h18 M9 0 v16 q-6 4 -10 0" stroke="#9ad8ff" stroke-width="2.6" fill="none" stroke-linecap="round"/><path transform="translate(168 132)" d="M0 0 h18 M6 0 v8 q8 6 10 -2 M10 8 v8" stroke="#9ad8ff" stroke-width="2.6" fill="none" stroke-linecap="round"/><path transform="translate(112 158)" d="M0 0 h18 M9 0 v16 q-6 4 -10 0" stroke="#9ad8ff" stroke-width="2.6" fill="none" stroke-linecap="round"/><path transform="translate(140 158)" d="M0 0 h18 M4 0 q-4 10 6 12 q10 0 6 -8" stroke="#9ad8ff" stroke-width="2.6" fill="none" stroke-linecap="round"/><path transform="translate(168 158)" d="M0 0 h18 M14 0 v16 M2 6 q6 -2 10 4" stroke="#9ad8ff" stroke-width="2.6" fill="none" stroke-linecap="round"/><path transform="translate(112 184)" d="M0 0 h18 M9 0 v16 q-6 4 -10 0" stroke="#9ad8ff" stroke-width="2.6" fill="none" stroke-linecap="round"/><path transform="translate(140 184)" d="M0 0 h18 M3 0 q10 6 4 16 M14 0 v16" stroke="#9ad8ff" stroke-width="2.6" fill="none" stroke-linecap="round"/><path transform="translate(168 184)" d="M0 0 h18 M9 0 v16 q-6 4 -10 0" stroke="#9ad8ff" stroke-width="2.6" fill="none" stroke-linecap="round"/><path transform="translate(112 210)" d="M0 0 h18 M6 0 v8 q8 6 10 -2 M10 8 v8" stroke="#9ad8ff" stroke-width="2.6" fill="none" stroke-linecap="round"/><path transform="translate(140 210)" d="M0 0 h18 M6 0 v8 q8 6 10 -2 M10 8 v8" stroke="#9ad8ff" stroke-width="2.6" fill="none" stroke-linecap="round"/><path transform="translate(168 210)" d="M0 0 h18 M6 0 v8 q8 6 10 -2 M10 8 v8" stroke="#9ad8ff" stroke-width="2.6" fill="none" stroke-linecap="round"/><path transform="translate(112 236)" d="M0 0 h18 M3 0 q10 6 4 16 M14 0 v16" stroke="#9ad8ff" stroke-width="2.6" fill="none" stroke-linecap="round"/><path transform="translate(140 236)" d="M0 0 h18 M14 0 v16 M2 6 q6 -2 10 4" stroke="#9ad8ff" stroke-width="2.6" fill="none" stroke-linecap="round"/><path transform="translate(168 236)" d="M0 0 h18 M4 0 q-4 10 6 12 q10 0 6 -8" stroke="#9ad8ff" stroke-width="2.6" fill="none" stroke-linecap="round"/><path transform="translate(112 262)" d="M0 0 h18 M3 0 q10 6 4 16 M14 0 v16" stroke="#9ad8ff" stroke-width="2.6" fill="none" stroke-linecap="round"/><path transform="translate(140 262)" d="M0 0 h18 M14 0 v16 M2 6 q6 -2 10 4" stroke="#9ad8ff" stroke-width="2.6" fill="none" stroke-linecap="round"/><path transform="translate(168 262)" d="M0 0 h18 M4 0 q-4 10 6 12 q10 0 6 -8" stroke="#9ad8ff" stroke-width="2.6" fill="none" stroke-linecap="round"/><path transform="translate(112 288)" d="M0 0 h18 M3 0 q10 6 4 16 M14 0 v16" stroke="#9ad8ff" stroke-width="2.6" fill="none" stroke-linecap="round"/><path transform="translate(140 288)" d="M0 0 h18 M9 0 v16 q-6 4 -10 0" stroke="#9ad8ff" stroke-width="2.6" fill="none" stroke-linecap="round"/><path transform="translate(168 288)" d="M0 0 h18 M9 0 v16 q-6 4 -10 0" stroke="#9ad8ff" stroke-width="2.6" fill="none" stroke-linecap="round"/><path transform="translate(112 314)" d="M0 0 h18 M14 0 v16 M2 6 q6 -2 10 4" stroke="#9ad8ff" stroke-width="2.6" fill="none" stroke-linecap="round"/><path transform="translate(140 314)" d="M0 0 h18 M9 0 v16 q-6 4 -10 0" stroke="#9ad8ff" stroke-width="2.6" fill="none" stroke-linecap="round"/><path transform="translate(168 314)" d="M0 0 h18 M14 0 v16 M2 6 q6 -2 10 4" stroke="#9ad8ff" stroke-width="2.6" fill="none" stroke-linecap="round"/><rect x="1.5" y="1.5" width="297" height="417" rx="16" fill="url(#vig)" stroke="#000" stroke-width="3"/><rect x="9" y="9" width="282" height="402" rx="11" fill="none" stroke="#c9a45c" stroke-opacity=".75" stroke-width="1.6"/><path transform="translate(14 14) scale(1 1)" d="M0 26 Q4 6 26 0 M8 30 q2 -8 -4 -12 M30 8 q-8 2 -12 -4 M5 5 l9 9" stroke="#c9a45c" stroke-width="2.2" fill="none" stroke-linecap="round"/><path transform="translate(286 14) scale(-1 1)" d="M0 26 Q4 6 26 0 M8 30 q2 -8 -4 -12 M30 8 q-8 2 -12 -4 M5 5 l9 9" stroke="#c9a45c" stroke-width="2.2" fill="none" stroke-linecap="round"/><path transform="translate(14 406) scale(1 -1)" d="M0 26 Q4 6 26 0 M8 30 q2 -8 -4 -12 M30 8 q-8 2 -12 -4 M5 5 l9 9" stroke="#c9a45c" stroke-width="2.2" fill="none" stroke-linecap="round"/><path transform="translate(286 406) scale(-1 -1)" d="M0 26 Q4 6 26 0 M8 30 q2 -8 -4 -12 M30 8 q-8 2 -12 -4 M5 5 l9 9" stroke="#c9a45c" stroke-width="2.2" fill="none" stroke-linecap="round"/></g></svg>